<svg width="24" height="24" viewBox="0 0 24 24" fill="none" xmlns="http://www.w3.org/2000/svg">
<path d="M11 17.0001H13V12.8001L14.6 14.4001L16 13.0001L12 9.00006L8 13.0001L9.4 14.4001L11 12.8001V17.0001ZM4 20.0001C3.45 20.0001 2.97933 19.8044 2.588 19.4131C2.196 19.0211 2 18.5501 2 18.0001V6.00006C2 5.45006 2.196 4.97939 2.588 4.58806C2.97933 4.19606 3.45 4.00006 4 4.00006H10L12 6.00006H20C20.55 6.00006 21.021 6.19606 21.413 6.58806C21.8043 6.97939 22 7.45006 22 8.00006V18.0001C22 18.5501 21.8043 19.0211 21.413 19.4131C21.021 19.8044 20.55 20.0001 20 20.0001H4ZM4 6.00006V18.0001H20V8.00006H11.175L9.175 6.00006H4ZM4 6.00006V18.0001V6.00006Z" fill="#1423DC"/>
</svg>
