<svg width="24" height="24" viewBox="0 0 24 24" fill="none" xmlns="http://www.w3.org/2000/svg">
<path d="M16 11.0001C17.66 11.0001 18.99 9.66006 18.99 8.00006C18.99 6.34006 17.66 5.00006 16 5.00006C14.34 5.00006 13 6.34006 13 8.00006C13 9.66006 14.34 11.0001 16 11.0001ZM8 11.0001C9.66 11.0001 10.99 9.66006 10.99 8.00006C10.99 6.34006 9.66 5.00006 8 5.00006C6.34 5.00006 5 6.34006 5 8.00006C5 9.66006 6.34 11.0001 8 11.0001ZM8 13.0001C5.67 13.0001 1 14.1701 1 16.5001V19.0001H15V16.5001C15 14.1701 10.33 13.0001 8 13.0001ZM16 13.0001C15.71 13.0001 15.38 13.0201 15.03 13.0501C16.19 13.8901 17 15.0201 17 16.5001V19.0001H23V16.5001C23 14.1701 18.33 13.0001 16 13.0001Z" fill="#1423DC"/>
</svg>
